<mxfile host="app.diagrams.net" agent="Mozilla/5.0 (Windows NT 10.0; Win64; x64) AppleWebKit/537.36 (KHTML, like Gecko) Chrome/131.0.0.0 Safari/537.36" version="26.0.4">
  <diagram name="System Context Diagram" id="0">
    <mxGraphModel grid="1" page="1" gridSize="10" guides="1" tooltips="1" connect="1" arrows="1" fold="1" pageScale="1" pageWidth="1169" pageHeight="827" math="0" shadow="0">
      <root>
        <mxCell id="0" />
        <mxCell id="1" parent="0" />
        <object label="&lt;div&gt;&lt;span style=&quot;font-size: 14px&quot;&gt;&lt;b&gt;%name%&lt;/b&gt;&lt;/span&gt;&lt;/div&gt;&lt;div&gt;&lt;span style=&quot;font-size: 8px&quot;&gt;[Software System]&lt;/span&gt;&lt;/div&gt;&lt;div&gt;&lt;span style=&quot;font-size: 8px&quot;&gt;&lt;br&gt;&lt;/span&gt;&lt;/div&gt;&lt;div&gt;&lt;font size=&quot;1&quot;&gt;%description%&lt;/font&gt;&lt;/div&gt;" placeholders="1" name="Social Security System" description="Allows Benefit claimant to upload documents and requirest benefit status report" id="VeUO8Z_Y1uuiud5LfWSS-1">
          <mxCell style="rounded=0;whiteSpace=wrap;html=1;fillColor=#0067BA;fontColor=#FFFFFF;strokeColor=#005DA8;resizable=0;rotatable=0;metaEdit=1;" vertex="1" parent="1">
            <mxGeometry x="470" y="320" width="180" height="120" as="geometry" />
          </mxCell>
        </object>
        <object label="&lt;font style=&quot;font-size: 14px&quot;&gt;&lt;b&gt;%A_NAME%&lt;/b&gt;&lt;/font&gt;&lt;br&gt;&lt;div&gt;&lt;font style=&quot;font-size: 11px&quot;&gt;[Person]&lt;/font&gt;&lt;/div&gt;&lt;div style=&quot;font-size: 6px&quot;&gt;&lt;br&gt;&lt;/div&gt;&lt;div style=&quot;font-size: 11px&quot;&gt;&lt;font color=&quot;#CCCCCC&quot;&gt;%B_DESCRIPTION%&lt;/font&gt;&lt;/div&gt;" A_NAME="Social Security Benefit Claimant" B_DESCRIPTION="A social security benefit claimant with a working relationship with an employer" placeholders="1" id="FLzrI5u8AWRQd4r4UTp0-1">
          <mxCell style="shape=stencil(tZTdboMwDIWfJpdFIVnHbiu6vUca3GEVEpRk6s/TL+BULVpTTWorceNz4OM42DBZ+1YNwAQ3qgcm10yI9qhtv9BviwGctyYq0W7JK9851ftUf6Ra+QF0IHGLB2hI9sHZHeyxCQmApgWHYXTlJ+OreM94yVpbYyIBrfEz58qPMIUmPssPBOPFkl5zTDVVMTf2EMCljKQy8fV/8BxbVM8Cl68C80LMz6J8Hvll4OoBsqyjkhsaWW+U3n07+2Oam3kmx40Tm/nmuTk/7wE/z73THk9pcyS/fwpb7DraiFxDmdjxUevgTj/QdTh4uHSzvLkZqZtq3kz1cOw/6SaVfi2T8As=);whiteSpace=wrap;html=1;rounded=1;fontColor=#ffffff;strokeColor=#000054;fillColor=#000084;spacing=5;spacingTop=65;arcSize=30;metaEdit=1;allowArrows=0;expand=0;recursiveResize=0;rotatable=0;resizable=0;" vertex="1" parent="1">
            <mxGeometry x="199.99999999999997" y="90" width="180" height="160" as="geometry" />
          </mxCell>
        </object>
        <object label="&lt;font style=&quot;font-size: 14px&quot;&gt;&lt;b&gt;%A_NAME%&lt;/b&gt;&lt;/font&gt;&lt;br&gt;&lt;div&gt;&lt;font style=&quot;font-size: 11px&quot;&gt;[Person]&lt;/font&gt;&lt;/div&gt;&lt;div style=&quot;font-size: 6px&quot;&gt;&lt;br&gt;&lt;/div&gt;&lt;div style=&quot;font-size: 11px&quot;&gt;&lt;font color=&quot;#CCCCCC&quot;&gt;%B_DESCRIPTION%&lt;/font&gt;&lt;/div&gt;" A_NAME="Employer" B_DESCRIPTION="Employer of Social Security Benefit Claimant" placeholders="1" id="FLzrI5u8AWRQd4r4UTp0-2">
          <mxCell style="shape=stencil(tZTdboMwDIWfJpdFIVnHbiu6vUca3GEVEpRk6s/TL+BULVpTTWorceNz4OM42DBZ+1YNwAQ3qgcm10yI9qhtv9BviwGctyYq0W7JK9851ftUf6Ra+QF0IHGLB2hI9sHZHeyxCQmApgWHYXTlJ+OreM94yVpbYyIBrfEz58qPMIUmPssPBOPFkl5zTDVVMTf2EMCljKQy8fV/8BxbVM8Cl68C80LMz6J8Hvll4OoBsqyjkhsaWW+U3n07+2Oam3kmx40Tm/nmuTk/7wE/z73THk9pcyS/fwpb7DraiFxDmdjxUevgTj/QdTh4uHSzvLkZqZtq3kz1cOw/6SaVfi2T8As=);whiteSpace=wrap;html=1;rounded=1;fontColor=#ffffff;strokeColor=#483F55;fillColor=#60596A;spacing=5;spacingTop=65;arcSize=30;allowArrows=0;recursiveResize=0;expand=0;metaEdit=1;resizable=0;rotatable=0;" vertex="1" parent="1">
            <mxGeometry x="200" y="530" width="180" height="160" as="geometry" />
          </mxCell>
        </object>
        <object label="&lt;font style=&quot;font-size: 14px&quot;&gt;&lt;b&gt;%A_NAME%&lt;/b&gt;&lt;/font&gt;&lt;br&gt;&lt;div&gt;&lt;font style=&quot;font-size: 11px&quot;&gt;[Person]&lt;/font&gt;&lt;/div&gt;&lt;div style=&quot;font-size: 6px&quot;&gt;&lt;br&gt;&lt;/div&gt;&lt;div style=&quot;font-size: 11px&quot;&gt;&lt;font color=&quot;#CCCCCC&quot;&gt;%B_DESCRIPTION%&lt;/font&gt;&lt;/div&gt;" A_NAME="Social Security officer" B_DESCRIPTION="A social security employee responsible for dealing with the benefit claimant" placeholders="1" id="FLzrI5u8AWRQd4r4UTp0-3">
          <mxCell style="shape=stencil(tZTdboMwDIWfJpdFIVnHbiu6vUca3GEVEpRk6s/TL+BULVpTTWorceNz4OM42DBZ+1YNwAQ3qgcm10yI9qhtv9BviwGctyYq0W7JK9851ftUf6Ra+QF0IHGLB2hI9sHZHeyxCQmApgWHYXTlJ+OreM94yVpbYyIBrfEz58qPMIUmPssPBOPFkl5zTDVVMTf2EMCljKQy8fV/8BxbVM8Cl68C80LMz6J8Hvll4OoBsqyjkhsaWW+U3n07+2Oam3kmx40Tm/nmuTk/7wE/z73THk9pcyS/fwpb7DraiFxDmdjxUevgTj/QdTh4uHSzvLkZqZtq3kz1cOw/6SaVfi2T8As=);whiteSpace=wrap;html=1;rounded=1;fontColor=#ffffff;strokeColor=#000054;fillColor=#000084;spacing=5;spacingTop=65;arcSize=30;metaEdit=1;allowArrows=0;expand=0;recursiveResize=0;rotatable=0;resizable=0;" vertex="1" parent="1">
            <mxGeometry x="720" y="90" width="180" height="160" as="geometry" />
          </mxCell>
        </object>
        <object label="&lt;font style=&quot;font-size: 14px&quot;&gt;&lt;b&gt;%A_NAME%&lt;/b&gt;&lt;/font&gt;&lt;br&gt;&lt;div&gt;&lt;font style=&quot;font-size: 11px&quot;&gt;[Software System]&lt;/font&gt;&lt;/div&gt;&lt;div style=&quot;font-size: 6px&quot;&gt;&lt;br&gt;&lt;/div&gt;&lt;div style=&quot;font-size: 11px&quot;&gt;&lt;font color=&quot;#CCCCCC&quot;&gt;%B_DESCRIPTION%&lt;/font&gt;&lt;/div&gt;" placeholders="1" A_NAME="Social Security Backoffice" B_DESCRIPTION="Stores all of the information about the Benefit Claimant, its benefit, the documents, etc." id="FLzrI5u8AWRQd4r4UTp0-4">
          <mxCell style="rounded=1;whiteSpace=wrap;html=1;fontColor=#ffffff;arcSize=6;metaEdit=1;points=[[0.25,0,0],[0.5,0,0],[0.75,0,0],[1,0.25,0],[1,0.5,0],[1,0.75,0],[0.75,1,0],[0.5,1,0],[0.25,1,0],[0,0.75,0],[0,0.5,0],[0,0.25,0]];resizable=0;editable=1;fillColor=#7b7484;strokeColor=#635970;movableLabel=0;allowArrows=0;rotatable=0;imageWidth=24;spacing=5;" vertex="1" parent="1">
            <mxGeometry x="790" y="340" width="220" height="100" as="geometry" />
          </mxCell>
        </object>
        <object label="&lt;font style=&quot;font-size: 14px&quot;&gt;&lt;b&gt;%A_NAME%&lt;/b&gt;&lt;/font&gt;&lt;br&gt;&lt;div&gt;&lt;font style=&quot;font-size: 11px&quot;&gt;[Software System]&lt;/font&gt;&lt;/div&gt;&lt;div style=&quot;font-size: 6px&quot;&gt;&lt;br&gt;&lt;/div&gt;&lt;div style=&quot;font-size: 11px&quot;&gt;&lt;font color=&quot;#CCCCCC&quot;&gt;%B_DESCRIPTION%&lt;/font&gt;&lt;/div&gt;" placeholders="1" A_NAME="E-mail System" B_DESCRIPTION="External e-mail systems." id="FLzrI5u8AWRQd4r4UTp0-5">
          <mxCell style="rounded=1;whiteSpace=wrap;html=1;fontColor=#ffffff;arcSize=6;metaEdit=1;points=[[0.25,0,0],[0.5,0,0],[0.75,0,0],[1,0.25,0],[1,0.5,0],[1,0.75,0],[0.75,1,0],[0.5,1,0],[0.25,1,0],[0,0.75,0],[0,0.5,0],[0,0.25,0]];resizable=0;editable=1;fillColor=#7b7484;strokeColor=#635970;movableLabel=0;allowArrows=0;rotatable=0;imageWidth=24;spacing=5;" vertex="1" parent="1">
            <mxGeometry x="760" y="590" width="220" height="100" as="geometry" />
          </mxCell>
        </object>
        <object label="&lt;div&gt;&lt;b&gt;%A_DESCRIPTION%&lt;/b&gt;&lt;br&gt;&lt;/div&gt;" placeholders="1" A_DESCRIPTION="Uses (inc uploading documents to)" id="FLzrI5u8AWRQd4r4UTp0-6">
          <mxCell style="endArrow=block;html=1;fontSize=10;fontColor=#404040;strokeWidth=1;endFill=1;strokeColor=#828282;elbow=vertical;metaEdit=1;backgroundOutline=0;editable=1;jumpStyle=arc;jumpSize=14;rounded=0;" edge="1" parent="1" target="VeUO8Z_Y1uuiud5LfWSS-1">
            <mxGeometry width="50" height="50" relative="1" as="geometry">
              <mxPoint x="300" y="250" as="sourcePoint" />
              <mxPoint x="540" y="250" as="targetPoint" />
            </mxGeometry>
          </mxCell>
        </object>
        <object label="&lt;div&gt;&lt;b&gt;%A_DESCRIPTION%&lt;/b&gt;&lt;br&gt;&lt;/div&gt;" placeholders="1" A_DESCRIPTION="Uses (access data related with benefit claimant)" id="FLzrI5u8AWRQd4r4UTp0-8">
          <mxCell style="endArrow=block;html=1;fontSize=10;fontColor=#404040;strokeWidth=1;endFill=1;strokeColor=#828282;elbow=vertical;metaEdit=1;backgroundOutline=0;editable=1;jumpStyle=arc;jumpSize=14;rounded=0;entryX=1;entryY=0.25;entryDx=0;entryDy=0;" edge="1" parent="1" target="VeUO8Z_Y1uuiud5LfWSS-1">
            <mxGeometry width="50" height="50" relative="1" as="geometry">
              <mxPoint x="820" y="250" as="sourcePoint" />
              <mxPoint x="1060" y="250" as="targetPoint" />
            </mxGeometry>
          </mxCell>
        </object>
        <object label="&lt;div&gt;&lt;b&gt;%A_DESCRIPTION%&lt;/b&gt;&lt;br&gt;&lt;/div&gt;" placeholders="1" A_DESCRIPTION="Works for" id="FLzrI5u8AWRQd4r4UTp0-9">
          <mxCell style="endArrow=block;html=1;fontSize=10;fontColor=#404040;strokeWidth=1;endFill=1;strokeColor=#828282;elbow=vertical;metaEdit=1;backgroundOutline=0;editable=1;jumpStyle=arc;jumpSize=14;rounded=0;entryX=0.444;entryY=0;entryDx=0;entryDy=0;entryPerimeter=0;" edge="1" parent="1" target="FLzrI5u8AWRQd4r4UTp0-2">
            <mxGeometry width="50" height="50" relative="1" as="geometry">
              <mxPoint x="280" y="250" as="sourcePoint" />
              <mxPoint x="520" y="250" as="targetPoint" />
            </mxGeometry>
          </mxCell>
        </object>
        <object label="&lt;div&gt;&lt;b&gt;%A_DESCRIPTION%&lt;/b&gt;&lt;br&gt;&lt;/div&gt;" placeholders="1" A_DESCRIPTION="Uses" id="FLzrI5u8AWRQd4r4UTp0-10">
          <mxCell style="endArrow=block;html=1;fontSize=10;fontColor=#404040;strokeWidth=1;endFill=1;strokeColor=#828282;elbow=vertical;metaEdit=1;backgroundOutline=0;editable=1;jumpStyle=arc;jumpSize=14;rounded=0;" edge="1" parent="1" source="VeUO8Z_Y1uuiud5LfWSS-1">
            <mxGeometry width="50" height="50" relative="1" as="geometry">
              <mxPoint x="660" y="380" as="sourcePoint" />
              <mxPoint x="790" y="380" as="targetPoint" />
            </mxGeometry>
          </mxCell>
        </object>
        <object label="&lt;div&gt;&lt;b&gt;%A_DESCRIPTION%&lt;/b&gt;&lt;br&gt;&lt;/div&gt;" placeholders="1" A_DESCRIPTION="Sends e-mails [SMTP]" id="FLzrI5u8AWRQd4r4UTp0-11">
          <mxCell style="endArrow=block;html=1;fontSize=10;fontColor=#404040;strokeWidth=1;endFill=1;strokeColor=#828282;elbow=vertical;metaEdit=1;backgroundOutline=0;editable=1;jumpStyle=arc;jumpSize=14;rounded=0;entryX=0.395;entryY=-0.002;entryDx=0;entryDy=0;entryPerimeter=0;" edge="1" parent="1" target="FLzrI5u8AWRQd4r4UTp0-5">
            <mxGeometry width="50" height="50" relative="1" as="geometry">
              <mxPoint x="560" y="440" as="sourcePoint" />
              <mxPoint x="800" y="440" as="targetPoint" />
            </mxGeometry>
          </mxCell>
        </object>
      </root>
    </mxGraphModel>
  </diagram>
</mxfile>
